<?xml version="1.0" encoding="utf-8"?><svg viewBox="0 0 98 80" xmlns="http://www.w3.org/2000/svg" xmlns:xlink="http://www.w3.org/1999/xlink"><style>:root>svg{display:none}:root>svg:target{display:block}</style><svg fill="none" viewBox="0 0 37 23" id="arrow" xmlns="http://www.w3.org/2000/svg"><path d="M18.5 22.046a2.584 2.584 0 01-1.832-.759L.76 5.377a2.591 2.591 0 113.664-3.664L18.5 15.791 32.577 1.714a2.591 2.591 0 013.664 3.664l-15.91 15.91a2.584 2.584 0 01-1.831.758z" fill="#fff"/></svg><svg fill="none" viewBox="0 0 92 80" id="clients" xmlns="http://www.w3.org/2000/svg"><path d="M45.92 31.21c8.604 0 15.605-7 15.605-15.605C61.525 7.001 54.524 0 45.919 0S30.314 7 30.314 15.605s7 15.606 15.605 15.606zm0-25.829c5.637 0 10.223 4.587 10.223 10.224 0 5.638-4.586 10.225-10.224 10.225-5.637 0-10.224-4.587-10.224-10.225 0-5.637 4.587-10.224 10.224-10.224zM77.489 31.21c5.44 0 9.865-4.425 9.865-9.865S82.93 11.48 77.49 11.48s-9.866 4.425-9.866 9.865 4.426 9.865 9.866 9.865zm0-14.35a4.49 4.49 0 014.484 4.485 4.49 4.49 0 01-4.484 4.484 4.49 4.49 0 01-4.485-4.484 4.49 4.49 0 014.485-4.484zM79.66 37.31h-4.162a12.198 12.198 0 00-11.066 7.058c-3.972-4.336-9.676-7.059-16.005-7.059h-5.015c-6.329 0-12.034 2.723-16.005 7.059a12.198 12.198 0 00-11.066-7.059h-4.162C5.464 37.31 0 42.74 0 49.415v19.59c0 2.897 2.367 5.255 5.276 5.255h16.453c.276 3.21 2.976 5.74 6.257 5.74h35.867c3.28 0 5.98-2.53 6.257-5.74h16.265c3.013 0 5.464-2.442 5.464-5.442V49.415c0-6.675-5.464-12.106-12.18-12.106zM5.38 49.414c0-3.708 3.05-6.725 6.798-6.725h4.162c3.748 0 6.798 3.017 6.798 6.725v1.842c-1.81 4.711-1.435 7.535-1.435 17.622H5.381V49.415zm59.372 24.303c0 .496-.404.9-.9.9H27.986a.902.902 0 01-.9-.9V59.017c0-9.003 7.323-16.327 16.326-16.327h5.014c9.003 0 16.327 7.324 16.327 16.327v14.7zm21.704-4.9c0 .092 1.003.06-16.323.06 0-10.161.372-12.917-1.435-17.62v-1.843c0-3.708 3.05-6.725 6.799-6.725h4.161c3.749 0 6.798 3.017 6.798 6.725v19.403zM14.35 31.21c5.44 0 9.865-4.425 9.865-9.865S19.79 11.48 14.35 11.48s-9.866 4.425-9.866 9.865S8.91 31.21 14.35 31.21zm0-14.35a4.49 4.49 0 014.484 4.485 4.49 4.49 0 01-4.484 4.484 4.49 4.49 0 01-4.485-4.484 4.49 4.49 0 014.485-4.484z" fill="#2352DE"/></svg><svg fill="none" viewBox="0 0 80 80" id="coffee" xmlns="http://www.w3.org/2000/svg"><path d="M48.869 15.418c3.075-2.484 3.771-5.14 3.813-6.93.104-4.356-3.336-7.543-3.728-7.892a2.357 2.357 0 00-3.133 3.522c.022.02 2.201 2.058 2.15 4.258-.029 1.172-.704 2.276-2.064 3.376-3.076 2.484-3.772 5.14-3.814 6.93-.104 4.356 3.336 7.543 3.728 7.892.45.4 1.012.598 1.572.598.65 0 1.296-.266 1.76-.789a2.351 2.351 0 00-.19-3.323c-.619-.562-2.212-2.428-2.158-4.284.035-1.166.71-2.264 2.064-3.358zM33.915 15.418c3.075-2.484 3.771-5.14 3.814-6.93.103-4.356-3.337-7.543-3.73-7.892a2.357 2.357 0 10-3.132 3.522c.022.02 2.201 2.058 2.15 4.258-.029 1.172-.704 2.276-2.064 3.376-3.076 2.484-3.772 5.14-3.814 6.93-.104 4.356 3.336 7.543 3.728 7.892.45.4 1.012.598 1.572.598.65 0 1.296-.266 1.76-.789a2.351 2.351 0 00-.19-3.323c-.618-.562-2.212-2.428-2.158-4.284.035-1.166.71-2.264 2.064-3.358zM67.655 38.46h-2.79v-1.728a2.357 2.357 0 00-2.356-2.356H2.357A2.357 2.357 0 000 36.732v12.44c0 10.99 6.084 20.655 15.217 26.114H2.358a2.357 2.357 0 000 4.714H62.51a2.357 2.357 0 000-4.714H49.65c5.194-3.104 9.401-7.568 12.064-12.864h5.943c6.606 0 11.98-5.374 11.98-11.98 0-6.607-5.374-11.981-11.98-11.981zm-7.503 10.711c0 14.4-12.435 26.115-27.719 26.115S4.713 63.571 4.713 49.171V39.09h55.44v10.082zm7.503 8.538H63.6a29.33 29.33 0 001.266-8.538v-5.997h2.79c4.006 0 7.267 3.26 7.267 7.268 0 4.007-3.26 7.267-7.268 7.267zM18.96 15.418c3.076-2.484 3.772-5.14 3.815-6.93.103-4.356-3.336-7.543-3.73-7.892a2.357 2.357 0 10-3.132 3.522c.022.02 2.201 2.058 2.15 4.258-.028 1.172-.703 2.276-2.064 3.376-3.076 2.484-3.772 5.14-3.814 6.93-.103 4.356 3.336 7.543 3.729 7.892a2.351 2.351 0 003.327-.195 2.357 2.357 0 00-.195-3.327c-.022-.02-2.2-2.059-2.149-4.258.028-1.172.703-2.277 2.064-3.376z" fill="#2352DE"/></svg><svg fill="none" viewBox="0 0 32 32" id="favicon" xmlns="http://www.w3.org/2000/svg"><path fill="#2352DE" d="M0 0h32v32H0z"/><path fill-rule="evenodd" clip-rule="evenodd" d="M6.261 4.995c.943-.958 2.313-.997 3.122-.09.521.586.624 1.971.71 9.567l.1 8.88 7.75.19c8.27.202 8.45.248 8.463 2.152.013 1.916-.483 2.016-10.046 2.016-8.186 0-8.949-.057-9.76-.724l-.88-.724-.11-10.246c-.107-9.894-.085-10.272.651-11.02z" fill="#fff"/></svg><svg fill="none" viewBox="0 0 60 60" id="item-1" xmlns="http://www.w3.org/2000/svg"><path d="M37.246.81L35.258.065c-.256-.116-.508-.08-.753.11-.246.19-.412.473-.498.852L22.05 57.442c-.086.379-.059.736.08 1.07.139.336.347.561.625.678l1.988.743c.256.117.508.08.753-.109.246-.19.412-.474.497-.852l11.96-56.414a1.737 1.737 0 00-.081-1.072c-.14-.335-.347-.56-.625-.677zM19 10.743c0-.39-.109-.737-.327-1.037L17.041 7.45c-.218-.3-.468-.451-.75-.451-.284 0-.534.15-.752.451L.327 28.463A1.72 1.72 0 000 29.5c0 .391.109.737.327 1.037L15.539 51.55c.218.301.468.451.751.451s.533-.15.75-.45l1.633-2.254c.218-.3.327-.646.327-1.038 0-.39-.11-.736-.327-1.036L5.843 29.5l12.83-17.72c.218-.3.327-.646.327-1.037zM59.674 28.463L44.46 7.45c-.218-.3-.468-.451-.75-.451-.284 0-.534.15-.752.451l-1.632 2.255c-.218.3-.326.646-.326 1.037 0 .391.108.736.326 1.037l12.83 17.72-12.83 17.722c-.218.3-.326.646-.326 1.036 0 .392.108.737.326 1.038l1.632 2.253c.218.301.468.451.751.451s.533-.15.75-.45l15.215-21.012c.217-.3.326-.647.326-1.038 0-.39-.109-.737-.326-1.037z" fill="#2352DE"/></svg><svg fill="none" viewBox="0 0 60 60" id="item-2" xmlns="http://www.w3.org/2000/svg"><path d="M31.883 60h-3.766a5.53 5.53 0 01-5.523-5.523v-1.274a24.225 24.225 0 01-3.762-1.562l-.902.903c-2.187 2.19-5.69 2.125-7.813 0l-2.661-2.662c-2.127-2.124-2.188-5.626 0-7.812l.903-.902a24.221 24.221 0 01-1.562-3.762H5.523A5.53 5.53 0 010 31.883v-3.766a5.53 5.53 0 015.524-5.523h1.273a24.224 24.224 0 011.562-3.762l-.903-.902c-2.188-2.185-2.127-5.687 0-7.813l2.662-2.661c2.128-2.131 5.63-2.184 7.812 0l.902.903a24.24 24.24 0 013.762-1.562V5.523A5.53 5.53 0 0128.117 0h3.766a5.53 5.53 0 015.523 5.523v1.274c1.295.414 2.553.936 3.762 1.562l.902-.903c2.187-2.19 5.69-2.125 7.813 0l2.661 2.662c2.127 2.124 2.188 5.626 0 7.812l-.903.902a24.224 24.224 0 011.562 3.762h1.273A5.53 5.53 0 0160 28.117v3.766a5.53 5.53 0 01-5.523 5.523h-1.274a24.228 24.228 0 01-1.562 3.762l.903.902c2.188 2.185 2.127 5.687 0 7.813l-2.662 2.661c-2.128 2.131-5.63 2.184-7.812 0l-.902-.902a24.242 24.242 0 01-3.762 1.56v1.275A5.53 5.53 0 0131.883 60zM19.42 47.95a20.718 20.718 0 005.37 2.23c.777.2 1.32.9 1.32 1.701v2.596c0 1.107.9 2.007 2.007 2.007h3.766a2.01 2.01 0 002.008-2.007V51.88c0-.801.542-1.502 1.318-1.702a20.72 20.72 0 005.371-2.23 1.758 1.758 0 012.138.27l1.838 1.84a2.007 2.007 0 002.84 0l2.663-2.663a2.008 2.008 0 000-2.839l-1.839-1.84a1.758 1.758 0 01-.27-2.137 20.711 20.711 0 002.23-5.37c.2-.777.9-1.32 1.701-1.32h2.596a2.01 2.01 0 002.008-2.007v-3.766a2.01 2.01 0 00-2.008-2.008H51.88a1.758 1.758 0 01-1.702-1.318 20.716 20.716 0 00-2.23-5.37 1.758 1.758 0 01.271-2.139l1.839-1.838a2.007 2.007 0 000-2.839l-2.663-2.663a2.007 2.007 0 00-2.839 0l-1.839 1.838a1.758 1.758 0 01-2.138.27 20.723 20.723 0 00-5.37-2.229c-.777-.2-1.32-.9-1.32-1.702V5.523a2.01 2.01 0 00-2.007-2.007h-3.766a2.01 2.01 0 00-2.008 2.007V8.12c0 .802-.542 1.502-1.318 1.702a20.72 20.72 0 00-5.37 2.23 1.758 1.758 0 01-2.139-.27l-1.838-1.84a2.007 2.007 0 00-2.839 0l-2.663 2.663a2.007 2.007 0 00-.001 2.839l1.84 1.84c.567.567.678 1.446.27 2.137a20.718 20.718 0 00-2.23 5.37c-.2.777-.9 1.32-1.702 1.32H5.524a2.01 2.01 0 00-2.008 2.007v3.766c0 1.107.9 2.008 2.008 2.008h2.595c.802 0 1.502.542 1.702 1.318a20.718 20.718 0 002.23 5.37c.408.692.297 1.571-.27 2.139l-1.84 1.838a2.007 2.007 0 000 2.84l2.663 2.662a2.007 2.007 0 002.839 0l1.839-1.838c.418-.418 1.288-.773 2.138-.27z" fill="#2352DE"/><path d="M30 43.055c-7.198 0-13.055-5.857-13.055-13.055 0-7.198 5.857-13.055 13.055-13.055 7.199 0 13.055 5.857 13.055 13.055 0 7.198-5.856 13.055-13.055 13.055zm0-22.594c-5.26 0-9.539 4.28-9.539 9.539 0 5.26 4.28 9.54 9.539 9.54 5.26 0 9.54-4.28 9.54-9.54 0-5.26-4.28-9.54-9.54-9.54z" fill="#2352DE"/></svg><svg fill="none" viewBox="0 0 60 60" id="item-3" xmlns="http://www.w3.org/2000/svg"><path d="M35.625 11.25h-22.5a1.876 1.876 0 000 3.75h22.5a1.876 1.876 0 000-3.75zM28.125 18.75h-15a1.876 1.876 0 000 3.75h15a1.876 1.876 0 000-3.75z" fill="#2352DE"/><path d="M41.25 0H7.5C3.364 0 0 3.364 0 7.5V45a1.873 1.873 0 003.075 1.44l10.729-8.94H41.25c4.136 0 7.5-3.364 7.5-7.5V7.5c0-4.136-3.364-7.5-7.5-7.5zM45 30c0 2.066-1.68 3.75-3.75 3.75H13.125c-.439 0-.863.154-1.2.435L3.75 40.999V7.5c0-2.066 1.68-3.75 3.75-3.75h33.75C43.32 3.75 45 5.434 45 7.5V30z" fill="#2352DE"/><path d="M52.5 15a1.876 1.876 0 000 3.75c2.07 0 3.75 1.684 3.75 3.75v31.721l-6.33-5.062a1.89 1.89 0 00-1.17-.409H22.5A3.754 3.754 0 0118.75 45v-1.875a1.876 1.876 0 00-3.75 0V45c0 4.136 3.364 7.5 7.5 7.5h25.59l8.861 7.091a1.893 1.893 0 001.988.225A1.88 1.88 0 0060 58.125V22.5c0-4.136-3.364-7.5-7.5-7.5z" fill="#2352DE"/></svg><svg fill="none" viewBox="0 0 81 80" id="review" xmlns="http://www.w3.org/2000/svg"><path d="M71.686 0H27.765c-4.758 0-8.628 3.87-8.628 8.627v19.608H8.627C3.87 28.235 0 32.105 0 36.863V61.96c0 4.757 3.87 8.627 8.627 8.627h14.427l5.576 8.364a2.353 2.353 0 003.916 0l5.576-8.364h14.427c4.757 0 8.627-3.87 8.627-8.627V42.353h10.51c4.757 0 8.628-3.87 8.628-8.628V8.627C80.314 3.87 76.444 0 71.686 0zM56.471 61.96a3.926 3.926 0 01-3.922 3.922H36.863c-.787 0-1.522.394-1.958 1.048l-4.317 6.475-4.317-6.475a2.353 2.353 0 00-1.957-1.048H8.627a3.926 3.926 0 01-3.921-3.921V36.863a3.926 3.926 0 013.921-3.922h10.51v.784c0 1.412.343 2.744.947 3.922h-8.32a2.353 2.353 0 000 4.706h30.428l3.137 4.706H11.765a2.353 2.353 0 000 4.706h37.96c.787 0 1.522-.394 1.958-1.048l4.788-7.181V61.96zm19.137-28.235a3.926 3.926 0 01-3.922 3.922H56c-.787 0-1.521.393-1.958 1.048l-4.317 6.475-4.316-6.475a2.353 2.353 0 00-1.958-1.048H27.765a3.926 3.926 0 01-3.922-3.922V8.627a3.926 3.926 0 013.922-3.921h43.921a3.926 3.926 0 013.922 3.921v25.098z" fill="#2352DE"/><path d="M49.412 56.47H11.765a2.353 2.353 0 000 4.707h37.647a2.353 2.353 0 000-4.706zM61.044 16.383l-6.363-.925-2.845-5.766a2.353 2.353 0 00-4.22 0l-2.846 5.766-6.363.925a2.353 2.353 0 00-1.304 4.013l4.604 4.488-1.087 6.337a2.354 2.354 0 003.414 2.481l5.691-2.992 5.692 2.992a2.352 2.352 0 003.414-2.48l-1.087-6.338 4.604-4.488a2.352 2.352 0 00-1.304-4.013zm-7.47 5.995a2.353 2.353 0 00-.677 2.082l.49 2.858-2.566-1.35a2.354 2.354 0 00-2.19 0l-2.566 1.35.49-2.858a2.352 2.352 0 00-.677-2.082l-2.076-2.024 2.87-.417a2.352 2.352 0 001.77-1.287l1.284-2.6 1.283 2.6a2.353 2.353 0 001.772 1.287l2.87.417-2.078 2.024z" fill="#2352DE"/></svg><svg fill="none" viewBox="0 0 98 80" id="works" xmlns="http://www.w3.org/2000/svg"><path d="M89.566 11.502h-20.48V7.838C69.086 3.516 65.57 0 61.248 0H35.9c-4.32 0-7.837 3.516-7.837 7.838v3.664H7.583C3.402 11.502 0 14.904 0 19.085v53.332C0 76.598 3.402 80 7.583 80h81.982c4.182 0 7.584-3.402 7.584-7.583V19.085c0-4.18-3.402-7.583-7.583-7.583zm-54.88-3.664c0-.67.545-1.215 1.215-1.215h25.347c.67 0 1.215.545 1.215 1.215v3.664H34.686V7.838zM7.584 18.125h81.982c.53 0 .96.43.96.96v17.377c-10.261 3.807-25.74 6.055-41.98 6.055-16.203 0-31.66-2.24-41.923-6.035V19.085c0-.53.43-.96.96-.96zm81.982 55.252H7.584c-.53 0-.961-.43-.961-.96V43.498c9.393 3.1 21.742 5.036 35.2 5.521 0 .038-.005.076-.005.114v1.46a4.97 4.97 0 004.965 4.966h3.583a4.97 4.97 0 004.966-4.965v-1.46c0-.04-.006-.078-.006-.117 13.467-.49 25.814-2.431 35.2-5.536v28.936c0 .53-.43.96-.96.96z" fill="#2352DE"/></svg></svg>